# xmcd
# 
# Track frame offsets:
#     150
#     17439
#     30702
#     53972
#     71439
#     86005
#     100710
#     115935
#     138724
#     155751
#     171071
#     188768
#     203673
#     221230
#     236658
#     253474
#     272477
# 
# Disc length: 3913
# 
# Revision: 1
# Processed by: cddbd v1.5.2PL0 Copyright (c) Steve Scherf et al.
# Submitted via: fre:ac v1.0.17
# 
DISCID=f50f4711
DTITLE=Various Artist - Шансон Года №2
DYEAR=2007
DGENRE=Chanson
TTITLE0=Михайлов Стас - Берега Мечты
TTITLE1=Бандера Андрей - Клён
TTITLE2=Митяев Олег - Одноклассница
TTITLE3=Шуфутинский Михаил and Смехова Алика - Капля Теплоты
TTITLE4=Трофимов Сергей - Московская Песня
TTITLE5=Успенская Любовь - Ты Вернешься Домой
TTITLE6=Маршал Александр and Быков Вячеслав - Назову Тебя Облоком
TTITLE7=Стёпин Алексей - Омут Серых Глаз
TTITLE8=Шепилова Любовь - Я Тебя Ищу
TTITLE9=Штар - Алое Сердце
TTITLE10=Алябин Олег - Самая Красивая
TTITLE11=Кузнецов Александр - Саночки
TTITLE12=Асмолов Владимир - Рядом Быть Хочу
TTITLE13=Третьяков Виктор - Чукотка
TTITLE14=Цыганова Вика - Любовь
TTITLE15=Лепс Григорий - Она
TTITLE16=Днепров Анатолий - Радовать
EXTD=
EXTT0=
EXTT1=
EXTT2=
EXTT3=
EXTT4=
EXTT5=
EXTT6=
EXTT7=
EXTT8=
EXTT9=
EXTT10=
EXTT11=
EXTT12=
EXTT13=
EXTT14=
EXTT15=
EXTT16=
PLAYORDER=
